<svg xmlns="http://www.w3.org/2000/svg" fill="none" viewBox="0 0 24 24"><path fill="#212121" d="M6.25 3A3.25 3.25 0 0 0 3 6.25v11.5A3.25 3.25 0 0 0 6.25 21h5.772a6.5 6.5 0 0 1-.709-1.5H10v-4h1.313a6.5 6.5 0 0 1 .709-1.5H10v-4h4v2.022a6.5 6.5 0 0 1 1.5-.709V10h4v1.313a6.5 6.5 0 0 1 1.5.709V6.25A3.25 3.25 0 0 0 17.75 3zM4.5 6.25c0-.966.784-1.75 1.75-1.75H8.5v4h-4zm0 7.75v-4h4v4zm15-5.5h-4v-4h2.25c.966 0 1.75.784 1.75 1.75zm-9.5-4h4v4h-4zM4.5 17.75V15.5h4v4H6.25a1.75 1.75 0 0 1-1.75-1.75M23 17.5a5.5 5.5 0 1 0-11 0 5.5 5.5 0 0 0 11 0m-5.573-3.495.084-.005.063.005.054.012.063.02.068.035.047.032 2.548 2.542.057.07a.5.5 0 0 1-.695.695l-.07-.057L18 15.706V21l-.008.09a.5.5 0 0 1-.402.402l-.09.008-.09-.008a.5.5 0 0 1-.402-.402L17 21l-.001-5.292-1.645 1.646-.07.057a.5.5 0 0 1-.568 0l-.07-.057-.057-.07a.5.5 0 0 1 0-.568l.057-.07 2.513-2.512.056-.045.074-.042.083-.03z"/></svg>