<svg xmlns="http://www.w3.org/2000/svg" fill="none" viewBox="0 0 24 24"><path fill="#212121" d="M10.75 2.5a.75.75 0 0 1 .75.75V6.5H13A.75.75 0 0 1 13 8h-1.5v3.03L10 12.529V3.25a.75.75 0 0 1 .75-.75m-.425 11.118 1.175-1.174 4.009-4.001a3.22 3.22 0 0 1 4.554.002 3.22 3.22 0 0 1-.002 4.551l-7.123 7.112a2.25 2.25 0 0 1-.943.562l-4.293 1.29a1 1 0 0 1-1.24-1.264l1.362-4.228c.11-.341.299-.65.552-.903zm-.89 3.007a.75.75 0 0 0-.183.301l-1.07 3.323 3.382-1.015a.75.75 0 0 0 .314-.188L19 11.936a1.718 1.718 0 1 0-2.431-2.432zM2 4.25a.75.75 0 0 1 .75-.75h5a.75.75 0 0 1 .747.682c.194 2.135-1.141 5.97-5.531 7.286a.75.75 0 1 1-.431-1.436C5.667 9.092 6.833 6.634 6.995 5H2.75A.75.75 0 0 1 2 4.25"/></svg>