<svg xmlns="http://www.w3.org/2000/svg" fill="none" viewBox="0 0 24 24"><path fill="#212121" d="M3.385 5.997a6.07 6.07 0 0 1 4.576-.467h.001c1.232.362 1.906 1.11 2.237 1.94.3.754.3 1.536.3 1.99v5.79a.75.75 0 0 1-1.5 0v-.3a9 9 0 0 1-.396.222c-.952.505-2.327 1.018-3.757.761-1.584-.285-2.576-1.595-2.8-2.952-.229-1.38.316-2.937 1.902-3.697 1.44-.69 2.99-.628 4.122-.427.342.061.653.136.923.211-.013-.351-.055-.71-.188-1.042-.166-.417-.491-.83-1.264-1.056a4.57 4.57 0 0 0-3.431.34.75.75 0 0 1-.725-1.313m4.423 4.337c-.986-.175-2.175-.194-3.212.303-.891.427-1.208 1.27-1.07 2.1.141.854.741 1.568 1.586 1.72.938.169 1.947-.164 2.788-.61a8 8 0 0 0 1.098-.702v-2.507a8.4 8.4 0 0 0-1.19-.304m8.677-3.296a.75.75 0 0 1 .476.948c-.09.27-.185.61-.271.94.948-.088 1.87-.226 2.638-.406a.75.75 0 1 1 .343 1.46c-.973.229-2.152.392-3.336.481q-.164.818-.257 1.5a6 6 0 0 1 1.672-.238.75.75 0 0 1 1.5.027l-.003.222a4.04 4.04 0 0 1 2.504 2.423 3.98 3.98 0 0 1-.154 3.128c-.496 1.025-1.44 1.894-2.827 2.427a.75.75 0 0 1-.538-1.4c1.083-.416 1.708-1.046 2.015-1.68a2.48 2.48 0 0 0 .097-1.954 2.55 2.55 0 0 0-1.278-1.399 7.63 7.63 0 0 1-2.285 4.047q.086.197.17.424a.75.75 0 1 1-1.423.478 4.7 4.7 0 0 1-1.24.474c-.72.155-1.557.099-2.13-.486-.865-.886-.818-2.277-.204-3.442.477-.908 1.323-1.77 2.538-2.413.06-.614.157-1.298.3-2.064-.654.014-1.28.002-1.844-.037a.75.75 0 0 1 .102-1.496c.622.042 1.331.05 2.067.024.116-.472.272-1.067.42-1.512a.75.75 0 0 1 .948-.476m-2.058 7.372c-.546.413-.92.87-1.146 1.3-.444.843-.289 1.45-.05 1.695.055.057.258.172.742.068.345-.074.672-.202.977-.373a8 8 0 0 1-.386-1.373 9 9 0 0 1-.137-1.317m1.755 1.66a6.65 6.65 0 0 0 1.413-2.848 4.7 4.7 0 0 0-1.328.25 8 8 0 0 0-.34.12 8.6 8.6 0 0 0 .113 1.867q.062.338.142.611"/></svg>