<svg xmlns="http://www.w3.org/2000/svg" fill="none" viewBox="0 0 24 24"><path fill="#212121" d="M3.28 2.22a.75.75 0 1 0-1.06 1.06l1.25 1.25A3.25 3.25 0 0 0 2 7.25v3.555L5.11 8.85l.146-.084a2.25 2.25 0 0 1 3.12 2.874l-.079.166-1.208 2.286-.041.093a.75.75 0 0 0 .974.957l.098-.046 1.76-.993.091-.045a.75.75 0 0 1 .735 1.292l-.085.057-1.765.996-.17.086a2.25 2.25 0 0 1-2.993-2.953l.07-.145 1.208-2.286.045-.104a.75.75 0 0 0-1.01-.933l-.097.052-3.76 2.363-.073.04-.076.032v4.2a3.25 3.25 0 0 0 3.25 3.25h13.5q.095 0 .188-.006l1.781 1.782a.75.75 0 0 0 1.061-1.061zm9.676 7.553 2.212 2.212.913-.275c.356-.106.68-.3.943-.562l4.28-4.274a2.27 2.27 0 0 0 .122-3.078l-.12-.13-.13-.121a2.27 2.27 0 0 0-3.08.119l-4.29 4.283a2.25 2.25 0 0 0-.553.903zm8.608 8.609-5.393-5.394.27-.08a3.5 3.5 0 0 0 1.285-.707l.181-.169L22 7.946v8.809c0 .592-.159 1.148-.436 1.627M7.184 4l4.779 4.78.1-.313.08-.224a3.5 3.5 0 0 1 .779-1.18L15.989 4z"/></svg>