<svg xmlns="http://www.w3.org/2000/svg" fill="none" viewBox="0 0 24 24"><path fill="#212121" d="M15.245 20.999a.75.75 0 0 1-.394-.113c-.075-.047-1.852-1.192-1.852-4.015 0-1.432.457-2.176.861-2.833.356-.58.639-1.04.639-2.046 0-1.007-.282-1.463-.639-2.043-.403-.655-.861-1.398-.861-2.83 0-2.818 1.777-3.958 1.854-4.005a.75.75 0 0 1 .801 1.268c-.06.04-1.154.797-1.154 2.738 0 1.005.282 1.463.639 2.042.403.655.861 1.398.861 2.829 0 1.43-.457 2.176-.861 2.833-.356.58-.639 1.039-.639 2.046 0 1.958 1.109 2.718 1.156 2.749a.75.75 0 0 1-.411 1.379m-5.369-.345a.754.754 0 0 0-.22-1.034c-.047-.031-1.156-.791-1.156-2.75 0-1.007.282-1.465.639-2.045.404-.657.861-1.401.861-2.833s-.458-2.174-.861-2.83C8.783 8.581 8.5 8.125 8.5 7.12c0-1.941 1.095-2.7 1.154-2.738a.75.75 0 0 0-.801-1.268c-.076.047-1.854 1.188-1.854 4.006 0 1.43.458 2.173.861 2.829.356.58.639 1.037.639 2.043s-.282 1.466-.639 2.046c-.404.657-.861 1.4-.861 2.833 0 2.823 1.776 3.968 1.852 4.015a.753.753 0 0 0 1.025-.232z"/></svg>