<svg xmlns="http://www.w3.org/2000/svg" fill="none" viewBox="0 0 24 24"><path fill="#212121" d="M21.925 10.094c.478-.129 1.193-.213 1.691.284.498.498.414 1.214.285 1.692-.145.542-.447 1.166-.84 1.816-.794 1.31-2.058 2.885-3.584 4.41-.43.43-1.092 1.105-1.862 1.455-.195.089-.407.16-.632.202a3.24 3.24 0 0 1-.932 2.585l-.205.196c-1.052.945-2.439 1.32-3.773 1.245-1.42-.079-2.849-.67-3.862-1.713a.75.75 0 0 1 .3-1.233c1.38-.46 1.738-.914 1.922-1.256.13-.244.172-.413.328-.778.139-.326.333-.695.69-1.053a3.24 3.24 0 0 1 2.589-.937c.043-.224.116-.435.204-.63.35-.769 1.026-1.431 1.455-1.86 1.526-1.526 3.1-2.792 4.41-3.585.65-.394 1.274-.695 1.816-.84m-6.939 8.913a1.75 1.75 0 0 0-2.474 0 1.7 1.7 0 0 0-.37.58c-.081.19-.22.585-.39.9-.29.542-.733 1.022-1.523 1.446.583.32 1.251.51 1.927.548 1.08.06 2.113-.27 2.826-.996l.004-.004a1.75 1.75 0 0 0 0-2.474M13.75 2A2.25 2.25 0 0 1 16 4.25V8h3.75c.83 0 1.553.451 1.943 1.12l-.027.007a7 7 0 0 0-1.407.574.75.75 0 0 0-.509-.201H16v3.348q-.507.463-1.008.962c-.13.13-.302.301-.492.505V9.5h-5v5h4.833c-.356.401-.742.903-.998 1.466l-.016.034H9.5v3.383a.8.8 0 0 1-.18.178c-.128.097-.344.225-.709.372-.191.07-.388.131-.574.215A2.3 2.3 0 0 1 8 19.75V16H4.25A2.25 2.25 0 0 1 2 13.75v-3.5A2.25 2.25 0 0 1 4.25 8H8V4.25A2.25 2.25 0 0 1 10.25 2zm-9.5 7.5a.75.75 0 0 0-.75.75v3.5c0 .414.336.75.75.75H8v-5zm6-6a.75.75 0 0 0-.75.75V8h5V4.25a.75.75 0 0 0-.75-.75z"/></svg>