<svg xmlns="http://www.w3.org/2000/svg" fill="none" viewBox="0 0 24 24"><path fill="#212121" d="M12.449 2.654a2.25 2.25 0 0 1 3.181 0l1.255 1.255c.449.449.336 1.105-.016 1.456A1.25 1.25 0 0 0 17.75 7.5c.344 0 .654-.141.882-.37l.07-.064c.338-.282.886-.364 1.3-.031l.087.078 1.248 1.248.155.17a2.25 2.25 0 0 1-.155 3.011l-9.793 9.793a2.25 2.25 0 0 1-3.181 0l-1.25-1.249c-.448-.448-.336-1.104.017-1.455l.082-.09a1.23 1.23 0 0 0 .287-.792 1.25 1.25 0 0 0-2.134-.882c-.35.352-1.007.464-1.456.015l-1.254-1.255a2.25 2.25 0 0 1 0-3.181zm2.12 1.06a.75.75 0 0 0-1.06 0L11.142 6.08l.828.829a.75.75 0 0 1-1.06 1.06l-.829-.828-6.365 6.366a.75.75 0 0 0 0 1.06l.942.943A2.75 2.75 0 0 1 9 17.75c0 .595-.193 1.142-.512 1.59l.936.936a.75.75 0 0 0 1.06 0l6.366-6.366-.82-.82a.75.75 0 1 1 1.061-1.06l.82.819 2.367-2.366a.75.75 0 0 0 0-1.06l-.937-.937c-.448.32-.995.514-1.59.514A2.75 2.75 0 0 1 15 6.25c0-.594.19-1.144.511-1.593zM13.032 9.03a.75.75 0 0 1 1.06 0l.88.879a.75.75 0 0 1-1.061 1.06l-.88-.879a.75.75 0 0 1 0-1.06"/></svg>