<svg xmlns="http://www.w3.org/2000/svg" fill="none" viewBox="0 0 24 24"><path fill="#212121" d="M4.93 4.929a1 1 0 0 1 1.415 1.414 8 8 0 0 0 0 11.313 1 1 0 0 1-1.414 1.415c-3.906-3.905-3.906-10.237 0-14.142m12.728 0a1 1 0 0 1 1.414 0c3.906 3.905 3.906 10.237 0 14.142a1 1 0 0 1-1.414-1.415 8 8 0 0 0 0-11.313 1 1 0 0 1 0-1.414m-9.9 2.828A1 1 0 0 1 9.174 9.17a4 4 0 0 0 0 5.657 1 1 0 0 1-1.414 1.414 6 6 0 0 1 0-8.485m7.071 0a1 1 0 0 1 1.414 0 6 6 0 0 1 0 8.485 1 1 0 0 1-1.414-1.414 4 4 0 0 0 0-5.657 1 1 0 0 1 0-1.414M12 10.5a1.5 1.5 0 1 1 0 3 1.5 1.5 0 0 1 0-3"/></svg>