<svg xmlns="http://www.w3.org/2000/svg" fill="none" viewBox="0 0 24 24"><path fill="#212121" d="M6 3.75a.75.75 0 0 1 1.5 0v14.69l.72-.72a.75.75 0 0 1 1.06 1.06l-2 2a.75.75 0 0 1-1.06 0l-2-2a.75.75 0 1 1 1.06-1.06l.72.72zM16.25 14a.75.75 0 0 0-.75.75v3.69l-.72-.72a.75.75 0 1 0-1.06 1.06l2 2a.75.75 0 0 0 1.06 0l2-2a.75.75 0 1 0-1.06-1.06l-.72.72v-3.69a.75.75 0 0 0-.75-.75m2.5-11a.75.75 0 0 1 .75.75V7h1.25a.75.75 0 0 1 0 1.5H19.5v3.75a.75.75 0 0 1-1.5 0v-8.5a.75.75 0 0 1 .75-.75m-7 1a.75.75 0 0 0 0 1.5H15V6c0 .922-.188 1.949-.682 2.72-.463.725-1.227 1.28-2.568 1.28a.75.75 0 0 0 0 1.5c1.859 0 3.095-.82 3.832-1.97.706-1.104.918-2.452.918-3.53V4.75a.75.75 0 0 0-.75-.75z"/></svg>