<svg xmlns="http://www.w3.org/2000/svg" fill="none" viewBox="0 0 24 24"><path fill="#212121" d="M20.72 2.22a.75.75 0 0 1 1.06 1.06l-5.835 5.835q.052.179.055.365a1.44 1.44 0 0 1-.964 1.39l-1.252.405-2.52 2.52-.436 1.328a1.44 1.44 0 0 1-1.327.872V16q-.198 0-.387-.054L3.28 21.78a.75.75 0 0 1-1.06-1.06zm-3.747 10.785a1.14 1.14 0 0 1 1.086.754l.329 1.014a1.3 1.3 0 0 0 .82.816l.991.323A1.145 1.145 0 0 1 21 16.98a1.14 1.14 0 0 1-.762 1.097l-1.013.33a1.3 1.3 0 0 0-.818.821l-.322.989a1.146 1.146 0 0 1-1.753.565 1.13 1.13 0 0 1-.41-.549l-.328-1.007a1.3 1.3 0 0 0-.821-.822l-.992-.324a1.15 1.15 0 0 1-.78-1.083 1.14 1.14 0 0 1 .77-1.08l1.006-.326a1.3 1.3 0 0 0 .801-.82l.323-.99a1.15 1.15 0 0 1 1.072-.776M9.455 2.998a1.45 1.45 0 0 1 1.374.961l.578 1.777A2.88 2.88 0 0 0 13.23 7.56l.023.006L7.56 13.26a2.87 2.87 0 0 0-1.822-1.826l-1.754-.569a1.46 1.46 0 0 1-.967-1.148 1.45 1.45 0 0 1 .95-1.586l1.777-.571a2.88 2.88 0 0 0 1.77-1.787l.583-1.792a1.45 1.45 0 0 1 1.358-.982"/></svg>