<svg xmlns="http://www.w3.org/2000/svg" fill="none" viewBox="0 0 24 24"><path fill="#212121" d="M2 12C2 6.477 6.477 2 12 2s10 4.477 10 10-4.477 10-10 10S2 17.523 2 12m15.5-3.75a.75.75 0 0 0-1.5 0V9a5 5 0 0 0-4-2 4.99 4.99 0 0 0-3.81 1.762.75.75 0 1 0 1.143.972 3.5 3.5 0 0 1 5.83.766H13.75a.75.75 0 0 0 0 1.5h3a.75.75 0 0 0 .75-.75zM7.25 16.5a.75.75 0 0 0 .75-.75V15a5 5 0 0 0 4 2 4.99 4.99 0 0 0 3.809-1.76.75.75 0 0 0-1.142-.973 3.5 3.5 0 0 1-5.83-.767h1.413a.75.75 0 0 0 0-1.5h-3a.75.75 0 0 0-.75.75v3c0 .414.336.75.75.75"/></svg>