<svg xmlns="http://www.w3.org/2000/svg" fill="none" viewBox="0 0 24 24"><path fill="#212121" d="M5.5 5.75a1.25 1.25 0 1 1 2.5 0v6.286c.477.045.978.133 1.5.274V11H16v3.5a6.5 6.5 0 0 0 1.5-.2V5.75a2.75 2.75 0 1 0-5.5 0v.5a.75.75 0 0 0 1.5 0v-.5a1.25 1.25 0 1 1 2.5 0V9.5H9.5V5.75a2.75 2.75 0 0 0-5.5 0v.5a.75.75 0 0 0 1.5 0zm-1.22 9.776a.75.75 0 0 1-1.065-1.056h.001v-.001l.003-.002.004-.005.012-.011a2 2 0 0 1 .16-.144 5 5 0 0 1 .45-.331 6 6 0 0 1 1.692-.753c1.496-.406 3.603-.376 6.2 1.108 2.306 1.317 4.333 1.31 5.777.992a7.5 7.5 0 0 0 1.714-.6 6 6 0 0 0 .581-.333l.001-.001.002-.001a.75.75 0 0 1 .878 1.216h-.001l-.002.002-.005.003-.014.01a3 3 0 0 1-.202.132 7 7 0 0 1-.57.315 9 9 0 0 1-2.06.722c-1.752.386-4.168.373-6.843-1.155-2.269-1.296-3.97-1.26-5.064-.963a4.4 4.4 0 0 0-1.263.56 3 3 0 0 0-.374.285zm-1.056 4.005a.75.75 0 0 0 1.057-.005l.011-.01.067-.06c.065-.054.168-.134.307-.226.28-.183.704-.408 1.263-.56 1.095-.296 2.795-.333 5.064.963 2.675 1.528 5.09 1.541 6.844 1.155a9 9 0 0 0 2.06-.722 7 7 0 0 0 .726-.416l.045-.03.014-.01.005-.004.002-.001.001-.001a.75.75 0 0 0-.878-1.216h-.002l-.001.002-.022.015-.108.07c-.1.06-.251.148-.451.248-.4.199-.986.44-1.714.6-1.444.319-3.47.325-5.777-.992-2.597-1.484-4.704-1.514-6.2-1.108-.737.2-1.305.499-1.692.753a5 5 0 0 0-.573.44l-.037.035-.012.011-.004.005-.002.002-.002.001a.75.75 0 0 0 .009 1.06"/></svg>