<svg xmlns="http://www.w3.org/2000/svg" fill="none" viewBox="0 0 24 24"><path fill="#212121" d="M3.575 6.618a.75.75 0 0 1 1.266.806A8.53 8.53 0 0 0 3.5 12a8.46 8.46 0 0 0 1.073 4.138l.15.27-1.112 3.983 3.987-1.112.27.15A8.46 8.46 0 0 0 12 20.5a8.6 8.6 0 0 0 4.48-1.27.75.75 0 0 1 .788 1.275A10 10 0 0 1 12 22a9.96 9.96 0 0 1-4.587-1.112l-3.826 1.067a1.25 1.25 0 0 1-1.54-1.54l1.067-3.823A9.96 9.96 0 0 1 2 12c0-1.906.56-3.788 1.575-5.382m13.328 11.059a7.47 7.47 0 0 1-4.9 1.823 7.46 7.46 0 0 1-3.482-.856l-.857-.449-.56.147-1.947.506.654-2.503-.45-.857v-.002l-.198-.404c-.432-.956-.66-2-.66-3.082 0-1.916.719-3.663 1.9-4.988zm3.378-3.73a.751.751 0 0 1 1.46.346 10.1 10.1 0 0 1-1.303 3.086.751.751 0 0 1-1.266-.806 8.6 8.6 0 0 0 1.11-2.627m-.801-7.454a.75.75 0 0 1 1.03.244 10 10 0 0 1 1.261 3.105.75.75 0 0 1-1.463.324 8.6 8.6 0 0 0-1.073-2.64.75.75 0 0 1 .245-1.033M13.398 2.82a.75.75 0 0 1 .903-.556 10 10 0 0 1 3.085 1.303.75.75 0 0 1-.805 1.266 8.6 8.6 0 0 0-2.627-1.11.75.75 0 0 1-.556-.903M9.85 2.233a.75.75 0 0 1 .323 1.464 8.6 8.6 0 0 0-2.64 1.072.75.75 0 0 1-.788-1.275 10 10 0 0 1 3.105-1.26"/></svg>