<svg xmlns="http://www.w3.org/2000/svg" fill="none" viewBox="0 0 24 24"><path fill="#212121" d="M4 12a8 8 0 0 0 7.492 7.984 6.5 6.5 0 0 0 1.289 1.986Q12.394 22 12 22C6.477 22 2 17.523 2 12S6.477 2 12 2s10 4.477 10 10q0 .395-.03.78a6.5 6.5 0 0 0-1.986-1.288A8 8 0 0 0 4 12m7.194 3.919a4.001 4.001 0 1 1 4.725-4.725 6.5 6.5 0 0 1 2-.18A6.002 6.002 0 0 0 6 12a6 6 0 0 0 5.013 5.92 6.6 6.6 0 0 1 .18-2.001M12 14h.022A6.5 6.5 0 0 1 14 12.022V12a2 2 0 1 0-2 2m5.5-2a5.5 5.5 0 1 1 0 11 5.5 5.5 0 0 1 0-11m-2.407 2.966-.07.058-.057.07a.5.5 0 0 0 0 .568l.058.07 1.77 1.769-1.768 1.766-.057.07a.5.5 0 0 0 0 .568l.057.07.07.057a.5.5 0 0 0 .568 0l.07-.057 1.766-1.767 1.77 1.769.069.058a.5.5 0 0 0 .568 0l.07-.058.057-.07a.5.5 0 0 0 0-.568l-.057-.07-1.77-1.768 1.772-1.77.058-.069a.5.5 0 0 0 0-.569l-.058-.069-.069-.058a.5.5 0 0 0-.569 0l-.069.058-1.772 1.77-1.77-1.77-.068-.058a.5.5 0 0 0-.493-.043z"/></svg>